<?xml version="1.0" encoding="UTF-8" standalone="no"?>
<svg
   xmlns:dc="http://purl.org/dc/elements/1.1/"
   xmlns:cc="http://creativecommons.org/ns#"
   xmlns:rdf="http://www.w3.org/1999/02/22-rdf-syntax-ns#"
   xmlns:svg="http://www.w3.org/2000/svg"
   xmlns="http://www.w3.org/2000/svg"
   xmlns:xlink="http://www.w3.org/1999/xlink"
   xmlns:sodipodi="http://sodipodi.sourceforge.net/DTD/sodipodi-0.dtd"
   xmlns:inkscape="http://www.inkscape.org/namespaces/inkscape"
   width="64"
   viewBox="0 0 64 64"
   height="64"
   id="svg2"
   version="1.1"
   inkscape:version="0.91 r13725"
   sodipodi:docname="application-vnd.openxmlformats-officedocument.wordprocessingml.document.svg">
  <metadata
     id="metadata37">
    <rdf:RDF>
      <cc:Work
         rdf:about="">
        <dc:format>image/svg+xml</dc:format>
        <dc:type
           rdf:resource="http://purl.org/dc/dcmitype/StillImage" />
        <dc:title></dc:title>
      </cc:Work>
    </rdf:RDF>
  </metadata>
  <sodipodi:namedview
     pagecolor="#ffffff"
     bordercolor="#666666"
     borderopacity="1"
     objecttolerance="10"
     gridtolerance="10"
     guidetolerance="10"
     inkscape:pageopacity="0"
     inkscape:pageshadow="2"
     inkscape:window-width="819"
     inkscape:window-height="480"
     id="namedview35"
     showgrid="false"
     inkscape:zoom="3.6875"
     inkscape:cx="-3.6610169"
     inkscape:cy="32"
     inkscape:window-x="0"
     inkscape:window-y="0"
     inkscape:window-maximized="0"
     inkscape:current-layer="svg2" />
  <defs
     id="defs4">
    <linearGradient
       id="a"
       y1="392.36"
       y2="336.36"
       gradientUnits="userSpaceOnUse"
       x2="0"
       gradientTransform="translate(-48-332.36)">
      <stop
         stop-color="#ffffff"
         stop-opacity="0"
         id="stop7" />
      <stop
         offset="1"
         stop-color="#ffffff"
         stop-opacity=".2"
         id="stop9" />
    </linearGradient>
    <linearGradient
       id="b"
       y1="17"
       x1="40"
       y2="31"
       gradientUnits="userSpaceOnUse"
       x2="54">
      <stop
         stop-color="#060606"
         id="stop12" />
      <stop
         offset="1"
         stop-opacity="0"
         id="stop14" />
    </linearGradient>
    <path
       id="c"
       d="m10 61v-58h30l14 14v44h-14z" />
  </defs>
  <use
     fill="#4040bf"
     xlink:href="#c"
     id="use17" />
  <g
     color-rendering="auto"
     color-interpolation-filters="linearRGB"
     shape-rendering="auto"
     image-rendering="auto"
     text-rendering="auto"
     color-interpolation="sRGB"
     color="#000000"
     transform="scale(1-1)"
     id="g19">
    <rect
       opacity=".5"
       x="10"
       y="-4"
       width="30"
       fill="#ffffff"
       height="1"
       id="rect21" />
    <rect
       opacity=".25"
       x="10"
       y="-61"
       width="44"
       height="1"
       id="rect23" />
  </g>
  <g
     fill-rule="evenodd"
     id="g25">
    <path
       opacity=".5"
       fill="#ffffff"
       d="m54 17l-14-14v14z"
       id="path27" />
    <path
       opacity=".2"
       fill="url(#b)"
       d="m40 17l14 14v-14z"
       id="path29" />
  </g>
  <path
     opacity=".75"
     color-interpolation-filters="linearRGB"
     color="#000000"
     image-rendering="auto"
     color-rendering="auto"
     d="m22 22c-.554 0-1 .446-1 1v20c0 .554.446 1 1 1h20c.554 0 1-.446 1-1v-20c0-.554-.446-1-1-1zm0 1h20v20h-20v-19zm1 2v1h8v-1zm10 0v1h8v-1zm-9.949 3v1h7.949v-1zm9.949 0v1h8v-1zm-10 3v1h8v-1zm10 0v1h8v-1zm-9.949 3v1h7.949v-1zm9.949 0v1h8v-1zm-10 3v1h8v-1zm10 0v1h8v-1zm-9.949 3v1h7.949v-1zm9.949 0v1h8v-1z"
     color-interpolation="sRGB"
     text-rendering="auto"
     fill="#ffffff"
     shape-rendering="auto"
     id="path31" />
  <use
     fill="url(#a)"
     xlink:href="#c"
     id="use33" />
</svg>
